<svg width="44" height="44" viewBox="0 0 44 44" fill="none" xmlns="http://www.w3.org/2000/svg">
<path d="M22 21.9998C27.0626 21.9998 31.1667 17.8958 31.1667 12.8332C31.1667 7.77056 27.0626 3.6665 22 3.6665C16.9374 3.6665 12.8333 7.77056 12.8333 12.8332C12.8333 17.8958 16.9374 21.9998 22 21.9998Z" stroke="#FFDE59" stroke-width="2" stroke-linecap="round" stroke-linejoin="round"/>
<path d="M6.25162 40.3333C6.25162 33.2383 13.31 27.5 22 27.5C23.76 27.5 25.465 27.7383 27.06 28.1783" stroke="#FFDE59" stroke-width="2" stroke-linecap="round" stroke-linejoin="round"/>
<path d="M40.3333 32.9998C40.3333 33.5865 40.26 34.1548 40.1133 34.7048C39.9483 35.4382 39.655 36.1532 39.27 36.7765C38.005 38.9032 35.6767 40.3332 33 40.3332C31.1117 40.3332 29.4067 39.6181 28.1234 38.4448C27.5734 37.9681 27.0967 37.3998 26.73 36.7765C26.0517 35.6765 25.6667 34.3748 25.6667 32.9998C25.6667 31.0198 26.455 29.2049 27.7383 27.8849C29.0767 26.5099 30.9467 25.6665 33 25.6665C35.1633 25.6665 37.1249 26.6015 38.4449 28.1049C39.6183 29.4065 40.3333 31.1298 40.3333 32.9998Z" stroke="#FFDE59" stroke-width="2" stroke-miterlimit="10" stroke-linecap="round" stroke-linejoin="round"/>
<path d="M34.5 34.5L30.5 34.5" stroke="#FFDE59" stroke-width="2" stroke-miterlimit="10" stroke-linecap="round" stroke-linejoin="round"/>
<path d="M34.5 34.5L34.5 30.5" stroke="#FFDE59" stroke-width="2" stroke-miterlimit="10" stroke-linecap="round" stroke-linejoin="round"/>
</svg>
