<svg width="44" height="44" viewBox="0 0 44 44" fill="none" xmlns="http://www.w3.org/2000/svg">
<path d="M22 21.9998C27.0626 21.9998 31.1667 17.8958 31.1667 12.8332C31.1667 7.77056 27.0626 3.6665 22 3.6665C16.9374 3.6665 12.8333 7.77056 12.8333 12.8332C12.8333 17.8958 16.9374 21.9998 22 21.9998Z" stroke="#FFDE59" stroke-width="2" stroke-linecap="round" stroke-linejoin="round"/>
<path d="M6.25168 40.3333C6.25168 33.2383 13.31 27.5 22 27.5C23.76 27.5 25.465 27.7383 27.06 28.1783" stroke="#FFDE59" stroke-width="2" stroke-linecap="round" stroke-linejoin="round"/>
<path d="M40.3333 32.9998C40.3333 34.3748 39.9483 35.6765 39.27 36.7765C38.885 37.4365 38.39 38.0232 37.8217 38.4998C36.5383 39.6548 34.8517 40.3332 33 40.3332C30.3233 40.3332 27.995 38.9032 26.73 36.7765C26.0516 35.6765 25.6667 34.3748 25.6667 32.9998C25.6667 30.6898 26.73 28.6182 28.4167 27.2798C29.6817 26.2715 31.2767 25.6665 33 25.6665C37.0517 25.6665 40.3333 28.9482 40.3333 32.9998Z" stroke="#FFDE59" stroke-width="2" stroke-miterlimit="10" stroke-linecap="round" stroke-linejoin="round"/>
<path d="M30.14 32.9998L31.955 34.8147L35.86 31.2031" stroke="#FFDE59" stroke-width="2" stroke-linecap="round" stroke-linejoin="round"/>
</svg>
