<svg width="20" height="20" viewBox="0 0 20 20" fill="none" xmlns="http://www.w3.org/2000/svg">
<g clip-path="url(#clip0_356_8)">
<path d="M14.3256 17.2224C13.0133 18.0173 11.5041 18.4375 9.96094 18.4375C5.30854 18.4375 1.52344 14.6524 1.52344 10C1.52344 5.3476 5.30854 1.5625 9.96094 1.5625C11.6835 1.5625 13.3399 2.07794 14.7511 3.05313C15.1061 3.29834 15.5927 3.20938 15.838 2.85446C16.0832 2.49954 15.9944 2.01294 15.6394 1.76758C13.9658 0.611267 12.0023 0 9.96094 0C7.28989 0 4.7786 1.04019 2.88986 2.92893C1.00113 4.81766 -0.0390625 7.32895 -0.0390625 10C-0.0390625 12.6711 1.00113 15.1823 2.88986 17.0711C4.7786 18.9598 7.28989 20 9.96094 20C11.7896 20 13.5788 19.5017 15.1352 18.5588C15.5043 18.3353 15.6223 17.8549 15.3987 17.4858C15.175 17.1167 14.6947 16.9989 14.3256 17.2224Z" fill="#B2B2B2"/>
<path d="M9.70735 12.1408C9.79707 12.2263 9.91258 12.2702 10.0363 12.2653C10.1538 12.2606 10.2622 12.2116 10.343 12.1272L18.5707 1.89333C18.8411 1.55702 19.3331 1.50362 19.6692 1.774C20.0055 2.04424 20.0589 2.53603 19.7885 2.87233L11.5447 13.1262C11.536 13.1371 11.5271 13.1476 11.5178 13.1578C11.1516 13.5669 10.6477 13.8043 10.0992 13.8265C10.0714 13.8275 10.0437 13.8281 10.0159 13.8281C9.498 13.8281 9.00926 13.6331 8.63145 13.2739L4.54057 9.39501C4.22746 9.09823 4.21433 8.60369 4.51127 8.29058C4.80805 7.97747 5.30259 7.96435 5.6157 8.26128L9.70735 12.1408Z" fill="#11C56E"/>
<path d="M18.2667 15.5515C19.3751 13.8937 19.9611 11.9741 19.9611 10.0002C19.9611 9.15398 19.855 8.31307 19.646 7.50069C19.5384 7.08291 19.1127 6.83144 18.6946 6.93887C18.2768 7.04644 18.0252 7.47247 18.1328 7.89025C18.3092 8.57537 18.3986 9.28536 18.3986 10.0002C18.3986 11.6639 17.9039 13.2832 16.9678 14.6832C16.728 15.0419 16.8243 15.5271 17.1831 15.7668C17.3164 15.8561 17.4673 15.8987 17.6166 15.8987C17.8686 15.8987 18.1161 15.7769 18.2667 15.5515Z" fill="#11C56E"/>
</g>
<defs>
<clipPath id="clip0_356_8">
<rect width="20" height="20" fill="white"/>
</clipPath>
</defs>
</svg>
