<svg width="20" height="20" viewBox="0 0 20 20" fill="none" xmlns="http://www.w3.org/2000/svg">
<path fill-rule="evenodd" clip-rule="evenodd" d="M11.1961 1.41629C9.02943 1.11439 6.82878 1.643 5.03566 2.89606C4.73386 3.10696 4.31823 3.03328 4.10733 2.73148C3.89643 2.42967 3.97012 2.01405 4.27192 1.80314C6.3409 0.357309 8.88011 -0.252627 11.3801 0.0957184C13.88 0.444064 16.1558 1.72492 17.7507 3.68128C19.3456 5.63765 20.1417 8.12479 19.9793 10.6437C19.8168 13.1625 18.7078 15.5268 16.8748 17.2621C15.0417 18.9973 12.6203 19.9752 10.0963 19.9995C7.5723 20.0238 5.13248 19.0928 3.26638 17.3931C1.40027 15.6935 0.245943 13.351 0.0350016 10.8357C-0.17594 8.32044 0.572111 5.81843 2.12906 3.83171C2.35617 3.54191 2.77521 3.49109 3.06501 3.7182C3.35481 3.94531 3.40563 4.36435 3.17852 4.65415C1.82916 6.37597 1.18085 8.54438 1.36367 10.7243C1.54648 12.9042 2.5469 14.9343 4.16419 16.4074C5.78148 17.8804 7.89599 18.6873 10.0835 18.6663C12.2709 18.6452 14.3695 17.7977 15.9581 16.2938C17.5467 14.7899 18.5079 12.7409 18.6487 10.5578C18.7895 8.37482 18.0995 6.2193 16.7173 4.52378C15.335 2.82826 13.3627 1.71819 11.1961 1.41629Z" fill="#B2B2B2"/>
<path fill-rule="evenodd" clip-rule="evenodd" d="M5.58979 5.4853C5.85014 5.22495 6.27225 5.22495 6.5326 5.4853L14.5326 13.4853C14.7929 13.7456 14.7929 14.1677 14.5326 14.4281C14.2722 14.6884 13.8501 14.6884 13.5898 14.4281L5.58979 6.42811C5.32944 6.16776 5.32944 5.74565 5.58979 5.4853Z" fill="#D70000"/>
<path fill-rule="evenodd" clip-rule="evenodd" d="M14.5326 5.4853C14.7929 5.74565 14.7929 6.16776 14.5326 6.42811L10.5326 10.4281C10.2723 10.6885 9.85014 10.6885 9.58979 10.4281C9.32944 10.1678 9.32944 9.74564 9.58979 9.48529L13.5898 5.4853C13.8501 5.22495 14.2722 5.22495 14.5326 5.4853Z" fill="#D70000"/>
<path fill-rule="evenodd" clip-rule="evenodd" d="M9.36593 10.6518C9.62628 10.9122 9.62628 11.3343 9.36593 11.5946L6.5326 14.4279C6.27225 14.6883 5.85014 14.6883 5.58979 14.4279C5.32944 14.1676 5.32944 13.7455 5.58979 13.4851L8.42312 10.6518C8.68347 10.3915 9.10558 10.3915 9.36593 10.6518Z" fill="#D70000"/>
</svg>
