<svg width="44" height="44" viewBox="0 0 44 44" fill="none" xmlns="http://www.w3.org/2000/svg">
<path d="M16.7933 19.9282C16.61 19.9098 16.39 19.9098 16.1883 19.9282C11.825 19.7815 8.35999 16.2065 8.35999 11.8065C8.35999 7.31484 11.99 3.6665 16.5 3.6665C20.9917 3.6665 24.64 7.31484 24.64 11.8065C24.6217 16.2065 21.1567 19.7815 16.7933 19.9282Z" stroke="#FFDE59" stroke-width="2" stroke-linecap="round" stroke-linejoin="round"/>
<path d="M30.085 7.3335C33.6417 7.3335 36.5017 10.2118 36.5017 13.7502C36.5017 17.2152 33.7517 20.0385 30.3233 20.1668C30.1767 20.1485 30.0117 20.1485 29.8467 20.1668" stroke="#FFDE59" stroke-width="2" stroke-linecap="round" stroke-linejoin="round"/>
<path d="M7.62669 26.6935C3.19003 29.6635 3.19003 34.5035 7.62669 37.4552C12.6684 40.8285 20.9367 40.8285 25.9784 37.4552C30.415 34.4852 30.415 29.6452 25.9784 26.6935C20.955 23.3385 12.6867 23.3385 7.62669 26.6935Z" stroke="#FFDE59" stroke-width="2" stroke-linecap="round" stroke-linejoin="round"/>
<path d="M33.6234 36.6665C34.9434 36.3915 36.19 35.8598 37.2167 35.0715C40.0767 32.9265 40.0767 29.3882 37.2167 27.2432C36.2084 26.4732 34.98 25.9598 33.6784 25.6665" stroke="#FFDE59" stroke-width="2" stroke-linecap="round" stroke-linejoin="round"/>
</svg>
